PathFileType	4	(X/Y/Z)	45_1_47_p1_0-256.trc
DataRate	CameraRate	NumFrames	NumMarkers	Units	OrigDataRate	OrigDataStartFrame	OrigNumFrames
51.0	51.0	6	27	m	51.0	32	257
Frame#	Time	RHip			RKnee			RAnkle			RBigToe			RSmallToe			RHeel			LHip			LKnee			LAnkle			LBigToe			LSmallToe			LHeel			Neck			Head			Nose			RShoulder			RElbow			RWrist			RThumb			RIndex			RPinky			LShoulder			LElbow			LWrist			LThumb			LIndex			LPinky			
		X1	Y1	Z1	X2	Y2	Z2	X3	Y3	Z3	X4	Y4	Z4	X5	Y5	Z5	X6	Y6	Z6	X7	Y7	Z7	X8	Y8	Z8	X9	Y9	Z9	X10	Y10	Z10	X11	Y11	Z11	X12	Y12	Z12	X13	Y13	Z13	X14	Y14	Z14	X15	Y15	Z15	X16	Y16	Z16	X17	Y17	Z17	X18	Y18	Z18	X19	Y19	Z19	X20	Y20	Z20	X21	Y21	Z21	X22	Y22	Z22	X23	Y23	Z23	X24	Y24	Z24	X25	Y25	Z25	X26	Y26	Z26	X27	Y27	Z27	
32	0.6274509803921569	0.5821441580809258	0.4595329583435752	0.9192006426445234	0.5938954449100236	0.6173901220497521	1.3203468801135596	0.6112255363605598	0.8283518563155358	1.6728599974859484	0.5938225479139057	0.688794723849889	1.7518632432895282	0.6477765452183977	0.7240351828751181	1.7476167696072973	0.5894433139870733	0.949290654421065	1.727608951759997	0.3734766418244139	0.46129441071662025	0.9372217211594444	0.41508282363576327	0.6006315766092466	1.3409433610453458	0.4151260213650369	0.8418588529143607	1.7130192586159634	0.43229647947501415	0.6757722618082391	1.759955257159084	0.37962227211273203	0.7173728934442194	1.7597879261722906	0.4342084987864172	0.8858064830808464	1.7469590242813373	0.42961218674573176	0.26038673319759453	0.4387810276451939	0.41847998300282774	0.14503033423112854	0.21703953794721131	0.4343243560590893	0.08192833276285735	0.3644578388204075	0.581623776067499	0.2989100613116537	0.51157256535913	0.631627443370707	0.3384926807795877	0.7190581640908387	0.5161619942963602	0.2848665810785211	0.9060878753418026	0.44731505853991904	0.3132639004805817	0.9878359264205824	0.45100372767801666	0.35127834787138473	1.0113677375087795	0.45365939300604785	0.34301032623822814	1.0180311500301251	0.2754468004663553	0.2584314385702069	0.5105538041851122	0.2695700381886031	0.3398877945142972	0.7275207470360033	0.4153329639753731	0.2754137190038646	0.9056137127779433	0.5012047545079128	0.27906898950858494	0.9810690576446228	0.49942651769717705	0.3176834832253344	1.0193545758619003	0.4446633429704191	0.32706326852652495	1.0108196568009717
33	0.6470588235294118	0.5779045367088357	0.4738966864010175	0.9194044871312985	0.5939216854282293	0.6170648114470442	1.3203796724984593	0.607492890106697	0.8127526939896828	1.67035922496533	0.5938145683970967	0.6888989097965419	1.7519506338809323	0.647973899251842	0.7244742055651617	1.747672186280358	0.589449472121356	0.9491343119730411	1.727678834032681	0.37335559121779816	0.4616142715617218	0.937409517755398	0.4097086368461781	0.6160073953398746	1.3433011612283388	0.41513558540281453	0.841860458781985	1.7130523368269381	0.432229894590887	0.6758678524465048	1.7600200195969546	0.3788534473366604	0.7190673022997377	1.763911123015531	0.4342574473311021	0.8857696411304311	1.7469164161143969	0.4290991327944575	0.25952283979673424	0.4352488248881806	0.41846048558748616	0.1450735410689875	0.21707843757137346	0.43404690769909426	0.08146626148785707	0.3611592482044486	0.5816906266941861	0.29985094169109555	0.5149124566997108	0.6316997790511979	0.33823325771725254	0.7190315003426901	0.5119275751409511	0.2827080561467188	0.9066994941214572	0.44746302181915576	0.3130598708619552	0.9876559232641986	0.4518155232283558	0.35179743629595395	1.0150168926612482	0.4492543642382077	0.3555899989345029	1.0190587809982201	0.2705575249716648	0.270532441561444	0.5088902663556186	0.26929787486632467	0.3405575785059285	0.7274128246681842	0.4152626964810759	0.27543789923986295	0.9056600450171669	0.500955618203164	0.27957694510323206	0.9848128557887458	0.5036361272461946	0.30227672070488826	1.0185228444552146	0.4445563455583811	0.32709539829663437	1.0110444085432002
34	0.6666666666666666	0.5786017838078262	0.4741631911873581	0.9231474003230625	0.5938601529753648	0.6164402470855195	1.3202410982551975	0.6082770485042422	0.8125051882849633	1.6745045726433287	0.5937522144966277	0.6889204839132342	1.7519274206143123	0.647463500622073	0.7242766624870539	1.7478401361158815	0.5901402286795707	0.9471423239333577	1.7226200593164833	0.3734648168381888	0.461581746141159	0.9373493308306106	0.4097186550363144	0.6160563567397489	1.3433329868310222	0.41297136921382505	0.8245761506673792	1.705786357568526	0.4322233618215376	0.675728565864227	1.759977971764306	0.3788602013881631	0.7195952979790174	1.7640927312539825	0.429092349259091	0.9039620441040014	1.7514313465193208	0.4290681524788023	0.25958396867778294	0.43514005315728105	0.41846773386250846	0.14501188660480946	0.21701141948206615	0.4335729766058525	0.079523706680402	0.3583880308095845	0.5815998981046271	0.2997066764613522	0.5149737557080617	0.6279867578766919	0.35252756345561054	0.7214876241631	0.5104687364617821	0.2800807576656228	0.9000870681115268	0.44284056526735527	0.2982630405533036	0.9842111549787581	0.4477553314636741	0.33958337203629607	1.0119002309931016	0.4491936608371523	0.3574028430379992	1.0225236902564694	0.270615661490955	0.27047846253745894	0.5088403758601666	0.2693612008582648	0.340360683914398	0.7274349270777631	0.41523565015662967	0.27557934484547236	0.9055637767718325	0.49331971054453944	0.2811247615983496	0.9856006895481314	0.49493232045036833	0.30356766503351734	1.015821120082438	0.443375912280241	0.32466568419819486	1.0068147268466525
35	0.6862745098039216	0.5785567421860447	0.4741834670891213	0.9231400424309796	0.5938869746281847	0.6166934396518567	1.3203284987546524	0.6082675381271033	0.8125278206101681	1.6744831729981449	0.5938087086213338	0.6886616377809349	1.7518677223071835	0.6474863003632685	0.7236783231392047	1.7476972736651408	0.5901099341451967	0.9470680592121172	1.7225475434006565	0.3729769926331077	0.4597111744450876	0.9367842044255954	0.4055869048125559	0.6148505024854697	1.3440741912272745	0.4150843936821789	0.8417748510286077	1.7130306735122127	0.4322067716777176	0.6758627013801922	1.7600034903656527	0.37889307169754816	0.7194674567805548	1.7640452896929564	0.43427536993140065	0.8854551471632928	1.7467697558080773	0.42905355163760894	0.25948978214797674	0.43508329280665364	0.414540047555569	0.14433655741121418	0.2177190149628329	0.4295546598153212	0.08970629101245356	0.35608855008607204	0.5816026045304075	0.2996289087483369	0.5149924183381328	0.6284899660952279	0.35286684304248417	0.7252381434977359	0.5103397083114476	0.2799279482679262	0.9001236267311404	0.44372454496482455	0.30086890787834303	0.9884115787179444	0.448456401545598	0.3398933548901193	1.0151779765814388	0.44988684340108137	0.35652146135595614	1.0200553036428763	0.2706056712475151	0.2704106240097618	0.5088515019566748	0.2692789814192955	0.34080131867552377	0.7274195832571457	0.41523604949139326	0.2757582601531579	0.9055676035688732	0.493367174892651	0.28082862789560437	0.985677573766192	0.49609832745262206	0.30307390216356633	1.019744234882988	0.44039735029565624	0.3137538143017102	1.0072457496867848
36	0.7058823529411765	0.5825231074430401	0.462064880354381	0.9307091559380947	0.593740452225949	0.6177787801628218	1.324346734896147	0.607519200449078	0.8127841883558461	1.6703259967588853	0.5979108641485656	0.7031839005106061	1.754602607837278	0.6523757734635705	0.7074857562014195	1.7430042992514192	0.5900793950539396	0.9470565455507792	1.7224483636634211	0.36879103848803685	0.4599906663531246	0.9413263277685315	0.40555638536514194	0.6153136235497491	1.3444054884832104	0.41231321912824204	0.8263219793586272	1.71052579139586	0.43120594770798143	0.6727325837805351	1.7558872830287091	0.37907211399945523	0.7197879179225288	1.7642748032602495	0.43419529953413244	0.8848682164657177	1.7467038305075087	0.4290253541859093	0.25954651075599317	0.4349451460528985	0.4145988241972526	0.1442051370722826	0.21781705556011383	0.42956977477933256	0.08976028082418855	0.3559436961455079	0.5816422445651901	0.2998966562698432	0.5149826866228737	0.6285248270044875	0.3523417294831842	0.722037152281969	0.510248393743061	0.2799964491497428	0.9001281150940613	0.44789584845012875	0.28491851167991233	0.9832909241035424	0.4474349420785125	0.3368007763713954	1.0111064086322867	0.4496725544546789	0.3555668395511642	1.0189915632694886	0.2703421092892591	0.2708331762009643	0.5087992223512026	0.2690805820519406	0.3400082052190385	0.7273561669648037	0.4151986899446007	0.27568368232409035	0.9057327935294963	0.493803420802626	0.2824723487441013	0.9865320060251329	0.4976151689000486	0.30594450500087617	1.0239553701906334	0.44348623892317585	0.31470243878865334	1.00688623234025
37	0.7254901960784313	0.5830049672549849	0.4634487794362363	0.9381023058760728	0.5892721273520337	0.6167943265533073	1.3248975474546372	0.6112735992057587	0.8281858591238357	1.6727891969020183	0.5980062704919272	0.7030404723340519	1.7545088923138807	0.6526191621014293	0.7074671686396871	1.7428561672288518	0.5901088892311873	0.9470291750316386	1.7224906717154307	0.3686973416538947	0.4600122282473809	0.9414382396069131	0.40494384655729515	0.616664443208954	1.348332636268214	0.4122794842113535	0.8264422178338419	1.7105730448787175	0.432341722334615	0.6760935475455558	1.7601489039212292	0.3791197155169184	0.7200560726885614	1.7643902745976554	0.4341358880604941	0.8853359858577443	1.746972783522566	0.4290126948481295	0.2594653541381132	0.43495909885043443	0.41511423369619505	0.14481143546087805	0.22122280094145738	0.4273792046867365	0.07962351205262089	0.35868096772488584	0.581598601344615	0.29977186349097584	0.5150563370978202	0.628426842100148	0.3522710003099678	0.7221150703491153	0.5109776464703033	0.2821340245483202	0.90307536969408	0.4494344202405083	0.287737424914506	0.9901716275489526	0.4475358060501408	0.33702578818470325	1.0115566357765846	0.4500088993854564	0.3564337030863997	1.0198287619720074	0.2703297622694686	0.2709202197970937	0.5087416195185268	0.26897461312243	0.3402341589481308	0.7273046544662725	0.4151454225241417	0.2754795802007066	0.9056786890973251	0.4934580881153612	0.2817416580927323	0.9864378429988122	0.4975788062750341	0.3056472019297595	1.0239468026495953	0.4434181282594188	0.3145434282155356	1.0070501958610505
